<svg width="1280" height="768" viewBox="0 0 1280 768" fill="none" xmlns="http://www.w3.org/2000/svg">
<mask id="mask0_63_5" style="mask-type:alpha" maskUnits="userSpaceOnUse" x="0" y="0" width="1280" height="768">
<rect width="1280" height="768" fill="#27173D"/>
</mask>
<g mask="url(#mask0_63_5)">
<rect width="1280" height="768" fill="#27173D"/>
<path d="M206.05 64.43L172.176 478.366L-169.367 242.063L206.05 64.43Z" fill="#58EDB9"/>
<circle cx="71" cy="182" r="117" fill="#1F1033"/>
<circle cx="1321.5" cy="310.5" r="336.5" fill="#1F1033"/>
<path d="M1248.99 131.825L1114.12 188.455L1132.51 43.3407L1248.99 131.825Z" fill="#58EDB9"/>
</g>
<path d="M324.008 345.523L338.741 267.664H361.214L336.937 377.087H314.237L296.423 303.888L278.609 377.087H255.909L231.631 267.664H254.105L268.913 345.372L286.952 267.664H306.044L324.008 345.523ZM431.945 354.541H392.409L384.891 377.087H360.914L401.654 267.664H422.549L463.514 377.087H439.536L431.945 354.541ZM398.497 336.279H425.857L412.101 295.321L398.497 336.279ZM496.286 358.975H544.167V377.087H473.736V267.664H496.286V358.975ZM579.718 358.975H627.599V377.087H557.169V267.664H579.718V358.975ZM706.447 329.665H663.153V358.975H713.963V377.087H640.602V267.664H713.813V285.927H663.153V312.005H706.447V329.665ZM811.076 285.927H777.552V377.087H755.003V285.927H721.931V267.664H811.076V285.927Z" fill="white"/>
<path d="M629.051 463.813C629.051 459.555 627.549 456.298 624.542 454.044C621.535 451.739 616.123 449.334 608.307 446.829C600.49 444.274 594.301 441.769 589.741 439.314C577.313 432.6 571.1 423.556 571.1 412.183C571.1 406.272 572.754 401.01 576.061 396.402C579.418 391.742 584.204 388.11 590.417 385.504C596.681 382.899 603.697 381.597 611.464 381.597C619.28 381.597 626.246 383.024 632.36 385.879C638.472 388.686 643.209 392.668 646.566 397.829C649.973 402.989 651.676 408.852 651.676 415.415H629.127C629.127 410.405 627.549 406.522 624.392 403.767C621.235 400.96 616.801 399.558 611.088 399.558C605.576 399.558 601.291 400.736 598.234 403.089C595.178 405.394 593.65 408.451 593.65 412.259C593.65 415.815 595.429 418.797 598.986 421.202C602.593 423.607 607.881 425.861 614.846 427.966C627.674 431.824 637.019 436.608 642.883 442.319C648.745 448.031 651.676 455.145 651.676 463.663C651.676 473.133 648.094 480.573 640.928 485.983C633.762 491.344 624.116 494.025 611.99 494.025C603.571 494.025 595.905 492.496 588.989 489.441C582.074 486.335 576.787 482.101 573.13 476.739C569.521 471.379 567.718 465.166 567.718 458.102H590.343C590.343 470.176 597.558 476.213 611.99 476.213C617.351 476.213 621.535 475.136 624.542 472.983C627.549 470.778 629.051 467.721 629.051 463.813ZM728.795 469.976H689.259L681.743 492.522H657.765L698.504 383.1H719.4L760.365 492.522H736.387L728.795 469.976ZM695.347 451.714H722.707L708.953 410.756L695.347 451.714ZM805.164 465.392L829.968 383.1H855.073L816.964 492.522H793.437L755.479 383.1H780.509L805.164 465.392ZM931.29 445.1H887.995V474.41H938.806V492.522H865.446V383.1H938.656V401.362H887.995V427.44H931.29V445.1ZM992.549 452.466H974.585V492.522H952.035V383.1H992.699C1005.63 383.1 1015.6 385.981 1022.61 391.742C1029.63 397.504 1033.14 405.646 1033.14 416.167C1033.14 423.632 1031.51 429.869 1028.25 434.88C1025.05 439.84 1020.16 443.798 1013.6 446.753L1037.27 491.47V492.522H1013.07L992.549 452.466ZM974.585 434.203H992.775C998.437 434.203 1002.82 432.775 1005.93 429.919C1009.03 427.014 1010.59 423.03 1010.59 417.97C1010.59 412.81 1009.11 408.752 1006.15 405.796C1003.25 402.839 998.763 401.362 992.699 401.362H974.585V434.203Z" fill="#58EDB9"/>
</svg>
