<svg width="595" height="458" viewBox="0 0 595 458" fill="none" xmlns="http://www.w3.org/2000/svg">
<g style="mix-blend-mode:darken">
<path d="M482.926 254.5C475 418 371 463.5 242.426 457C111.926 442 0.425659 275.1 0.425659 142C0.425659 8.89919 122 -17.5 242.426 10.9999C348.426 46.4999 482.926 123 482.926 254.5Z" fill="#58EDB9"/>
<path d="M482.926 254.5C475 418 371 463.5 242.426 457C111.926 442 0.425659 275.1 0.425659 142C0.425659 8.89919 122 -17.5 242.426 10.9999C348.426 46.4999 482.926 123 482.926 254.5Z" fill="#43C497" fill-opacity="0.33"/>
</g>
<path d="M126.545 192.481C117.011 200.279 132.612 268.724 132.612 268.724C132.612 268.724 136.079 373.125 143.447 377.89C150.814 382.656 167.283 377.457 173.783 376.591C180.284 375.724 174.65 311.178 165.116 287.352C155.581 263.526 162.949 228.87 162.949 228.87L214.521 238.834C214.521 238.834 183.318 265.259 184.618 270.89C185.918 276.522 219.288 295.583 225.356 296.449C231.423 297.316 243.124 261.793 253.525 237.534C263.927 213.275 182.451 197.68 182.451 197.68L171.183 176.453C171.183 176.453 136.079 184.684 126.545 192.481Z" fill="#2F2E41"/>
<path d="M152.429 379.688C152.429 379.688 149.284 390.691 152.429 390.691C155.573 390.691 161.339 393.834 170.249 392.786C179.16 391.738 176.539 380.736 170.249 379.164C163.96 377.592 165.532 365.018 165.532 365.018C163.436 360.827 153.477 366.066 153.477 366.066L152.429 379.688Z" fill="#2F2E41"/>
<path d="M197.076 292.197C197.076 292.197 191.681 302.289 194.755 302.952C197.829 303.614 202.802 307.903 211.733 308.757C220.664 309.611 220.424 298.303 214.607 295.441C208.79 292.579 212.98 280.619 212.98 280.619C211.815 276.08 200.975 279.102 200.975 279.102L197.076 292.197Z" fill="#2F2E41"/>
<path d="M132.395 98.694C133.262 100.427 129.362 122.087 129.362 122.087L132.829 128.151C132.829 128.151 152.764 120.354 149.731 119.054C146.697 117.755 147.13 101.726 147.13 101.726C147.13 101.726 131.529 96.9612 132.395 98.694Z" fill="#FFB9B9"/>
<path d="M139.899 105.371C154.574 105.371 166.471 93.4789 166.471 78.8096C166.471 64.1404 154.574 52.2486 139.899 52.2486C125.224 52.2486 113.327 64.1404 113.327 78.8096C113.327 93.4789 125.224 105.371 139.899 105.371Z" fill="#2F2E41"/>
<path d="M138.066 64.9349C144.139 64.9349 149.062 60.0142 149.062 53.9441C149.062 47.8741 144.139 42.9534 138.066 42.9534C131.994 42.9534 127.071 47.8741 127.071 53.9441C127.071 60.0142 131.994 64.9349 138.066 64.9349Z" fill="#2F2E41"/>
<path d="M142.877 58.9222C143.257 58.9616 143.64 58.9815 144.022 58.9816C145.466 58.9816 146.896 58.6973 148.23 58.145C149.564 57.5926 150.776 56.783 151.797 55.7624C152.818 54.7419 153.628 53.5302 154.181 52.1968C154.733 50.8633 155.018 49.4341 155.018 47.9908C155.018 46.5475 154.733 45.1183 154.181 43.7848C153.628 42.4513 152.818 41.2397 151.797 40.2191C150.776 39.1985 149.564 38.389 148.23 37.8366C146.896 37.2843 145.466 37 144.022 37C143.64 37.0001 143.257 37.0199 142.877 37.0594C145.58 37.3425 148.082 38.6163 149.901 40.6349C151.72 42.6535 152.727 45.274 152.727 47.9908C152.727 50.7075 151.72 53.328 149.901 55.3467C148.082 57.3653 145.58 58.6391 142.877 58.9222Z" fill="#2F2E41"/>
<path d="M140.63 109.957C150.682 109.957 158.832 101.811 158.832 91.7629C158.832 81.7144 150.682 73.5685 140.63 73.5685C130.577 73.5685 122.428 81.7144 122.428 91.7629C122.428 101.811 130.577 109.957 140.63 109.957Z" fill="#FFB9B9"/>
<path d="M114.41 119.704C108.776 121.004 99.2418 134.866 99.2418 134.866L114.41 150.028C114.41 150.028 125.245 190.749 126.545 192.482C135.062 203.834 173.35 178.619 173.35 178.619C173.35 178.619 171.833 166.273 172.7 160.208C173.534 154.375 169.45 142.664 169.45 142.664C169.45 142.664 183.751 136.599 180.717 130.534C177.684 124.469 159.048 110.607 151.248 115.372C143.447 120.137 127.845 115.372 127.845 115.372C127.845 115.372 120.044 118.405 114.41 119.704Z" fill="#E6E6E6"/>
<path d="M225.139 206.994C225.139 206.994 249.842 228.22 255.909 223.888C261.976 219.556 232.506 204.394 232.506 204.394L225.139 206.994Z" fill="#FFB9B9"/>
<path d="M114.194 199.629C117.661 203.528 134.129 193.565 132.018 189.14C129.906 184.715 116.794 193.565 116.794 193.565C116.794 193.565 110.726 195.731 114.194 199.629Z" fill="#FFB9B9"/>
<path d="M114.41 140.931L96.2082 174.72C96.2082 174.72 117.01 192.048 119.611 192.482C122.211 192.915 114.41 204.178 114.41 204.178C114.41 204.178 91.0076 187.716 81.9066 179.486C72.8056 171.255 99.2419 134.866 99.2419 134.866L107.043 130.101L114.41 140.931Z" fill="#E6E6E6"/>
<path d="M167.283 139.631L188.518 172.554C188.518 172.554 221.022 208.943 225.356 210.676C229.689 212.409 234.89 204.178 234.89 204.178L195.886 156.959L181.151 130.534L175.517 128.368L167.283 139.631Z" fill="#E6E6E6"/>
<path d="M139.899 81.1363C150.02 81.1363 158.225 76.2156 158.225 70.1456C158.225 64.0755 150.02 59.1548 139.899 59.1548C129.778 59.1548 121.573 64.0755 121.573 70.1456C121.573 76.2156 129.778 81.1363 139.899 81.1363Z" fill="#2F2E41"/>
<path d="M191.309 307.284C190.708 307.285 190.132 307.523 189.707 307.948C189.283 308.373 189.044 308.948 189.043 309.548V386.783C189.044 387.383 189.283 387.958 189.707 388.383C190.132 388.807 190.708 389.046 191.309 389.047H454.774C455.375 389.046 455.95 388.807 456.375 388.383C456.8 387.958 457.039 387.383 457.039 386.783V309.548C457.039 308.948 456.8 308.372 456.375 307.948C455.951 307.523 455.375 307.285 454.774 307.284L191.309 307.284Z" fill="#E6E6E6"/>
<path d="M194.72 383.372H451.362V312.959H194.72V383.372Z" fill="white"/>
<path d="M418.968 368.765C418.475 368.764 417.986 368.861 417.53 369.049C417.075 369.237 416.66 369.513 416.311 369.862C415.963 370.21 415.686 370.624 415.497 371.079C415.308 371.535 415.211 372.023 415.211 372.516C415.211 373.009 415.308 373.497 415.497 373.952C415.686 374.408 415.963 374.821 416.311 375.17C416.66 375.518 417.075 375.794 417.53 375.982C417.986 376.171 418.475 376.267 418.968 376.267H433.978C434.973 376.267 435.928 375.872 436.632 375.168C437.335 374.465 437.731 373.511 437.731 372.516C437.731 371.521 437.335 370.567 436.632 369.863C435.928 369.16 434.973 368.765 433.978 368.765H418.968Z" fill="#58EDB9"/>
<path d="M437.731 361.489H264.454V362.476H437.731V361.489Z" fill="#E6E6E6"/>
<path d="M228.234 370.013C240.305 370.013 250.091 360.232 250.091 348.165C250.091 336.099 240.305 326.318 228.234 326.318C216.163 326.318 206.377 336.099 206.377 348.165C206.377 360.232 216.163 370.013 228.234 370.013Z" fill="#58EDB9"/>
<path d="M264.728 355.978L264.181 355.157L282.186 343.158L294.534 349.082L312.294 337.74L347.623 352.804L375.757 338.99L403.076 350.061L437.404 319.669L438.058 320.408L403.272 351.206L375.795 340.07L347.651 353.889L312.386 338.852L294.602 350.21L282.266 344.291L264.728 355.978Z" fill="#3F3D56"/>
<path d="M267.663 369.281C267.241 369.28 266.824 369.363 266.434 369.524C266.044 369.685 265.69 369.921 265.391 370.219C265.093 370.517 264.856 370.87 264.695 371.26C264.533 371.649 264.45 372.067 264.45 372.488C264.45 372.91 264.533 373.327 264.695 373.717C264.856 374.106 265.093 374.46 265.391 374.758C265.69 375.056 266.044 375.292 266.434 375.453C266.824 375.614 267.241 375.696 267.663 375.696H301.232C302.083 375.695 302.898 375.356 303.499 374.755C304.1 374.153 304.437 373.338 304.437 372.488C304.437 371.638 304.1 370.823 303.499 370.222C302.898 369.62 302.083 369.282 301.232 369.281H267.663Z" fill="#E6E6E6"/>
<path d="M236.582 338.391H239.997L232.891 345.421C231.649 346.644 229.976 347.33 228.233 347.33C226.49 347.33 224.817 346.644 223.575 345.421L216.47 338.391H219.885L225.284 343.732C226.07 344.506 227.129 344.941 228.234 344.941C229.338 344.941 230.397 344.506 231.183 343.732L236.582 338.391ZM219.842 357.939H216.427L223.576 350.866C224.818 349.643 226.491 348.958 228.234 348.958C229.977 348.958 231.65 349.643 232.892 350.866L240.041 357.939H236.626L231.184 352.556C230.397 351.781 229.338 351.347 228.234 351.347C227.13 351.347 226.07 351.781 225.284 352.556L219.842 357.939Z" fill="white"/>
<path d="M225.616 59.8961C225.016 59.8968 224.44 60.1356 224.015 60.5601C223.59 60.9846 223.352 61.5602 223.351 62.1605V139.395C223.352 139.995 223.59 140.571 224.015 140.995C224.44 141.42 225.016 141.658 225.616 141.659H489.082C489.682 141.658 490.258 141.42 490.683 140.995C491.108 140.571 491.346 139.995 491.347 139.395V62.1605C491.346 61.5602 491.108 60.9846 490.683 60.5601C490.258 60.1356 489.682 59.8968 489.082 59.8961L225.616 59.8961Z" fill="#E6E6E6"/>
<path d="M229.028 135.984H485.67V65.5708H229.028V135.984Z" fill="white"/>
<path d="M453.276 121.377C452.28 121.377 451.326 121.772 450.622 122.475C449.918 123.179 449.523 124.133 449.523 125.128C449.523 126.123 449.918 127.077 450.622 127.78C451.326 128.484 452.28 128.879 453.276 128.879H468.286C469.281 128.879 470.236 128.484 470.939 127.78C471.643 127.077 472.038 126.123 472.038 125.128C472.038 124.133 471.643 123.179 470.939 122.475C470.236 121.772 469.281 121.377 468.286 121.377H453.276Z" fill="#58EDB9"/>
<path d="M472.038 114.101H298.762V115.088H472.038V114.101Z" fill="#E6E6E6"/>
<path d="M262.542 122.625C274.613 122.625 284.399 112.844 284.399 100.778C284.399 88.7114 274.613 78.9299 262.542 78.9299C250.47 78.9299 240.685 88.7114 240.685 100.778C240.685 112.844 250.47 122.625 262.542 122.625Z" fill="#58EDB9"/>
<path d="M299.036 108.59L298.488 107.769L316.494 95.7698L328.841 101.694L346.601 90.3524L346.841 90.4543L381.93 105.416L410.064 91.6019L437.383 102.673L471.711 72.2808L472.366 73.0196L437.58 103.817L410.103 92.6824L381.959 106.502L346.694 91.4646L328.91 102.822L316.574 96.9026L299.036 108.59Z" fill="#3F3D56"/>
<path d="M301.971 121.893C301.12 121.894 300.305 122.232 299.704 122.834C299.104 123.435 298.766 124.25 298.766 125.1C298.766 125.95 299.104 126.765 299.704 127.367C300.305 127.968 301.12 128.307 301.971 128.308H335.54C336.391 128.308 337.207 127.97 337.809 127.368C338.411 126.767 338.749 125.951 338.749 125.1C338.749 124.25 338.411 123.434 337.809 122.832C337.207 122.231 336.391 121.893 335.54 121.893H301.971Z" fill="#E6E6E6"/>
<path d="M271.336 98.2275C271.744 95.4935 269.662 94.0238 266.814 93.0433L267.738 89.3398L265.482 88.778L264.583 92.3839C263.991 92.2363 263.382 92.0969 262.777 91.9589L263.682 88.3292L261.428 87.7673L260.504 91.4696C260.013 91.3579 259.531 91.2474 259.064 91.1312L259.066 91.1197L255.956 90.3434L255.356 92.7512C255.356 92.7512 257.029 93.1345 256.994 93.1583C257.306 93.1956 257.591 93.3539 257.788 93.5991C257.984 93.8443 258.077 94.1568 258.045 94.4694L256.993 98.6885C257.073 98.7084 257.151 98.7335 257.227 98.7637L256.99 98.7046L255.514 104.615C255.482 104.718 255.429 104.814 255.36 104.897C255.29 104.98 255.205 105.048 255.109 105.098C255.013 105.147 254.908 105.178 254.8 105.187C254.692 105.196 254.584 105.183 254.481 105.15C254.503 105.183 252.841 104.741 252.841 104.741L251.722 107.323L254.657 108.054C255.203 108.191 255.738 108.334 256.264 108.469L255.331 112.215L257.584 112.777L258.509 109.071C259.123 109.238 259.721 109.392 260.305 109.537L259.384 113.226L261.64 113.788L262.573 110.049C266.419 110.776 269.311 110.483 270.527 107.007C271.508 104.207 270.479 102.592 268.456 101.539C269.929 101.198 271.039 100.229 271.335 98.2275L271.336 98.2275ZM266.182 105.45C265.485 108.25 260.77 106.737 259.24 106.357L260.479 101.394C262.008 101.776 266.909 102.531 266.183 105.45H266.182ZM266.879 98.1871C266.243 100.734 262.319 99.4398 261.045 99.1226L262.168 94.6216C263.441 94.9388 267.542 95.5308 266.879 98.1871Z" fill="white"/>
<path d="M329.269 183.59C328.668 183.591 328.093 183.83 327.668 184.254C327.243 184.679 327.004 185.254 327.004 185.855V263.089C327.004 263.689 327.243 264.264 327.668 264.689C328.093 265.114 328.668 265.352 329.269 265.353H592.735C593.335 265.352 593.911 265.114 594.336 264.689C594.76 264.264 594.999 263.689 595 263.089V185.854C594.999 185.254 594.76 184.679 594.336 184.254C593.911 183.83 593.335 183.591 592.735 183.59L329.269 183.59Z" fill="#E6E6E6"/>
<path d="M332.681 259.678H589.323V189.265H332.681V259.678Z" fill="white"/>
<path d="M556.928 245.071C555.933 245.071 554.979 245.466 554.275 246.169C553.571 246.873 553.176 247.827 553.176 248.822C553.176 249.817 553.571 250.771 554.275 251.474C554.979 252.178 555.933 252.573 556.928 252.573H571.939C572.934 252.573 573.888 252.178 574.592 251.474C575.296 250.771 575.691 249.817 575.691 248.822C575.691 247.827 575.296 246.873 574.592 246.169C573.888 245.466 572.934 245.071 571.939 245.071H556.928Z" fill="#58EDB9"/>
<path d="M575.691 237.795H402.415V238.782H575.691V237.795Z" fill="#E6E6E6"/>
<path d="M366.194 246.319C378.266 246.319 388.051 236.538 388.051 224.472C388.051 212.405 378.266 202.624 366.194 202.624C354.123 202.624 344.338 212.405 344.338 224.472C344.338 236.538 354.123 246.319 366.194 246.319Z" fill="#58EDB9"/>
<path d="M402.689 232.284L402.141 231.463L420.146 219.464L432.494 225.388L450.254 214.047L450.494 214.148L485.583 229.111L513.717 215.296L541.036 226.366L575.364 195.975L576.019 196.714L541.233 227.511L513.756 216.377L485.612 230.196L450.347 215.159L432.562 226.516L420.227 220.597L402.689 232.284Z" fill="#3F3D56"/>
<path d="M405.624 245.587C404.773 245.587 403.956 245.925 403.355 246.526C402.753 247.128 402.415 247.944 402.415 248.794C402.415 249.645 402.753 250.461 403.355 251.062C403.956 251.664 404.773 252.002 405.624 252.002H439.193C440.044 252.002 440.86 251.664 441.462 251.062C442.064 250.461 442.402 249.645 442.402 248.794C442.402 247.944 442.064 247.128 441.462 246.526C440.86 245.925 440.044 245.587 439.193 245.587H405.624Z" fill="#E6E6E6"/>
<path d="M366.192 238.871L375.04 226.415L366.192 231.637L357.349 226.415L366.192 238.871H366.192Z" fill="white"/>
<path d="M366.192 229.963H366.192L375.035 224.739L366.192 210.072H366.192L357.349 224.739L366.192 229.963Z" fill="white"/>
</svg>
