<svg width="64" height="23" viewBox="0 0 64 23" fill="none" xmlns="http://www.w3.org/2000/svg">
<path d="M7.40625 8.53906L8.55469 2.46875H10.3066L8.41406 11H6.64453L5.25586 5.29297L3.86719 11H2.09766L0.205078 2.46875H1.95703L3.11133 8.52734L4.51758 2.46875H6.00586L7.40625 8.53906ZM15.8203 9.24219H12.7383L12.1523 11H10.2832L13.459 2.46875H15.0879L18.2812 11H16.4121L15.8203 9.24219ZM13.2129 7.81836H15.3457L14.2734 4.625L13.2129 7.81836ZM20.8359 9.58789H24.5684V11H19.0781V2.46875H20.8359V9.58789ZM27.3398 9.58789H31.0723V11H25.582V2.46875H27.3398V9.58789ZM37.2188 7.30273H33.8438V9.58789H37.8047V11H32.0859V2.46875H37.793V3.89258H33.8438V5.92578H37.2188V7.30273ZM45.375 3.89258H42.7617V11H41.0039V3.89258H38.4258V2.46875H45.375V3.89258Z" fill="white"/>
<path d="M31.1855 17.7617C31.1855 17.4297 31.0684 17.1758 30.834 17C30.5996 16.8203 30.1777 16.6328 29.5684 16.4375C28.959 16.2383 28.4766 16.043 28.1211 15.8516C27.1523 15.3281 26.668 14.623 26.668 13.7363C26.668 13.2754 26.7969 12.8652 27.0547 12.5059C27.3164 12.1426 27.6895 11.8594 28.1738 11.6562C28.6621 11.4531 29.209 11.3516 29.8145 11.3516C30.4238 11.3516 30.9668 11.4629 31.4434 11.6855C31.9199 11.9043 32.2891 12.2148 32.5508 12.6172C32.8164 13.0195 32.9492 13.4766 32.9492 13.9883H31.1914C31.1914 13.5977 31.0684 13.2949 30.8223 13.0801C30.5762 12.8613 30.2305 12.752 29.7852 12.752C29.3555 12.752 29.0215 12.8438 28.7832 13.0273C28.5449 13.207 28.4258 13.4453 28.4258 13.7422C28.4258 14.0195 28.5645 14.252 28.8418 14.4395C29.123 14.627 29.5352 14.8027 30.0781 14.9668C31.0781 15.2676 31.8066 15.6406 32.2637 16.0859C32.7207 16.5312 32.9492 17.0859 32.9492 17.75C32.9492 18.4883 32.6699 19.0684 32.1113 19.4902C31.5527 19.9082 30.8008 20.1172 29.8555 20.1172C29.1992 20.1172 28.6016 19.998 28.0625 19.7598C27.5234 19.5176 27.1113 19.1875 26.8262 18.7695C26.5449 18.3516 26.4043 17.8672 26.4043 17.3164H28.168C28.168 18.2578 28.7305 18.7285 29.8555 18.7285C30.2734 18.7285 30.5996 18.6445 30.834 18.4766C31.0684 18.3047 31.1855 18.0664 31.1855 17.7617ZM38.9609 18.2422H35.8789L35.293 20H33.4238L36.5996 11.4688H38.2285L41.4219 20H39.5527L38.9609 18.2422ZM36.3535 16.8184H38.4863L37.4141 13.625L36.3535 16.8184ZM44.9141 17.8848L46.8477 11.4688H48.8047L45.834 20H44L41.041 11.4688H42.9922L44.9141 17.8848ZM54.7461 16.3027H51.3711V18.5879H55.332V20H49.6133V11.4688H55.3203V12.8926H51.3711V14.9258H54.7461V16.3027ZM59.5215 16.877H58.1211V20H56.3633V11.4688H59.5332C60.541 11.4688 61.3184 11.6934 61.8652 12.1426C62.4121 12.5918 62.6855 13.2266 62.6855 14.0469C62.6855 14.6289 62.5586 15.1152 62.3047 15.5059C62.0547 15.8926 61.6738 16.2012 61.1621 16.4316L63.0078 19.918V20H61.1211L59.5215 16.877ZM58.1211 15.4531H59.5391C59.9805 15.4531 60.3223 15.3418 60.5645 15.1191C60.8066 14.8926 60.9277 14.582 60.9277 14.1875C60.9277 13.7852 60.8125 13.4688 60.582 13.2383C60.3555 13.0078 60.0059 12.8926 59.5332 12.8926H58.1211V15.4531Z" fill="#D4153B"/>
</svg>
